<svg width="683" height="683" viewBox="0 0 683 683" fill="none" xmlns="http://www.w3.org/2000/svg">
<path d="M146.667 2.00011C108.4 7.73345 78.1333 22.9334 50.5333 50.5334C22.1333 78.9334 6.66668 110.667 1.46667 150.533C-0.533325 166.133 -0.533325 516.533 1.46667 532.133C6.66668 572 22.1333 603.733 50.5333 632.133C78.9333 660.533 110.667 676 150.533 681.2C166.133 683.2 516.533 683.2 532.133 681.2C572 676 603.733 660.533 632.133 632.133C660.533 603.733 676 572 681.2 532.133C683.2 516.533 683.2 166.133 681.2 150.533C676 110.667 660.533 78.9334 632.133 50.5334C603.733 22.1334 572 6.66678 532.133 1.46678C515.067 -0.799886 161.733 -0.266553 146.667 2.00011ZM546.267 62.2668C561.333 67.4668 564.667 69.2001 577.067 77.7334C596.8 91.3334 612.4 112.533 620.267 136.4L624.667 150V341.333C624.667 524.4 624.533 533.067 622.133 540.667C613.2 569.6 597.733 591.067 574.933 606.533C565.067 613.2 556.533 617.067 542.667 621.467L532.667 624.667H341.333H150L136.4 620.267C99.0667 608 72.9333 580.667 60.5333 540.667C58.1333 533.067 58 524.4 58 341.333C58 158.267 58.1333 149.6 60.5333 142C70 111.6 86.5333 89.4668 111.2 74.0001C121.6 67.4668 139.467 60.5334 150.533 58.6668C153.867 58.1334 241.6 57.7334 345.333 57.8668L534 58.0001L546.267 62.2668Z" fill="white"/>
<path d="M517.333 115.2C507.867 117.333 502.4 120.267 496 126.8C487.333 135.733 484.667 142.8 484.667 156.667C484.667 167.067 485.2 169.6 488.267 175.333C495.6 189.2 508 197.333 523.467 198.4C534.8 199.067 540.8 197.467 550.267 191.067C576.8 173.2 573.733 132.533 544.933 118.8C535.067 114.133 527.2 113.067 517.333 115.2Z" fill="white"/>
<path d="M319.467 172.133C255.067 181.067 200.133 225.867 180.133 286.133C173.333 306.667 171.467 318.533 171.467 341.333C171.467 364.133 173.333 376 180.133 396.667C196.267 444.933 237.867 486.4 286.4 502.667C306.667 509.333 318.667 511.2 341.333 511.2C364 511.2 376 509.333 396.267 502.667C444.8 486.4 486.4 444.933 502.533 396.667C509.333 376 511.2 364.133 511.2 341.333C511.2 311.467 505.467 287.067 492.533 262.667C467.867 216.4 425.467 184.533 374 174C361.2 171.333 332.133 170.267 319.467 172.133ZM375.6 233.2C389.867 237.867 393.733 239.733 404.667 247.067C427.067 262.133 442.133 283.067 450.8 310.667C453.467 319.333 454 323.467 454 341.333C454 363.333 452.4 371.467 444.533 388.933C434.667 411.333 411.333 434.667 388.8 444.667C371.467 452.4 363.333 454 341.333 454C319.333 454 311.2 452.4 293.867 444.667C271.333 434.667 248 411.333 238.133 388.933C230.267 371.467 228.667 363.333 228.667 341.333C228.667 323.467 229.2 319.333 231.867 310.667C236.4 296.267 240.4 287.867 248 276.8C263.067 254.933 284.133 239.867 310 232.267C323.2 228.4 325.2 228.133 345.333 228.667C361.2 229.067 364.8 229.6 375.6 233.2Z" fill="white"/>
</svg>
