<svg width="598" height="499" viewBox="0 0 598 499" fill="none" xmlns="http://www.w3.org/2000/svg">
<path d="M551.333 3.20064C546.533 4.93397 422.667 52.4006 276.133 108.534C111.867 171.467 8.39999 211.734 6.39999 213.601C2.26666 217.467 0.133324 225.201 1.19999 231.467C3.33332 242.267 3.99999 242.534 80.9333 268.534C139.6 288.401 151.467 292.001 153.867 290.801C155.333 289.867 172.4 279.601 191.6 267.734C210.933 256.001 283.6 211.467 353.2 168.934C483.067 89.6006 484 89.2006 484 96.8006C484 98.4006 441.067 138.801 363.067 210.667C296.533 271.867 240.667 323.467 238.8 325.334C235.733 328.667 235.6 330.001 231.2 392.267C228.133 437.067 227.2 457.067 228.133 459.601C229.6 464.001 235.467 467.201 239.6 465.867C241.2 465.467 259.867 448.001 281.2 427.201C302.533 406.401 320.4 389.334 320.933 389.334C321.6 389.334 353.2 412.801 391.067 441.601C428.933 470.401 462.133 495.067 464.667 496.401C474.8 501.734 489.467 497.467 496.533 487.334C498.8 484.001 510.667 432.134 548.667 259.334C575.867 136.267 598 33.734 598 31.6006C598 23.6006 594.8 16.8006 588 10.0006C577.6 -0.532692 567.067 -2.39936 551.333 3.20064Z" fill="white"/>
</svg>
