<svg width="683" height="683" viewBox="0 0 683 683" fill="none" xmlns="http://www.w3.org/2000/svg">
<g clip-path="url(#clip0_18_11)">
<path d="M286 147.467C273.067 148.4 256.533 150.933 250 152.933C238.667 156.4 224.667 168.933 227.2 173.2C227.733 173.867 230.267 174.933 233.067 175.467C245.333 177.733 255.6 184.667 260.267 193.733C268.133 209.2 271.733 257.733 267.467 292C264.667 314.667 263.467 319.867 259.2 328.133C248.133 350.267 222.4 332.4 194.133 282.8C184 265.2 155.733 208.667 149.467 193.6C141.733 175.333 139.333 172 130.667 167.6L123.333 163.867L68 164.267C18 164.667 12.2667 164.933 8.39999 167.067C2.13332 170.4 -0.533346 175.067 0.399987 181.067C1.19999 187.467 22.1333 234.133 37.6 264C67.7333 322.133 93.3333 364.4 120.533 401.333C160.667 455.6 178.4 473.2 219.333 499.333C238.4 511.6 252.267 518.4 269.333 524.133C292.8 532 302.933 533.467 338 534.267C372.8 535.067 382.8 534 390.267 528.933C396.267 524.8 398.133 519.067 399.333 501.333C400.4 483.733 403.867 468.667 408.533 460.667C412.8 453.6 421.733 445.333 425.733 445.2C439.2 444.533 446.8 450.133 475.067 481.867C501.6 511.6 511.333 520.267 526 527.333C532.667 530.4 540.667 533.6 544 534.4C552 536.267 660 534.133 666.933 532.133C673.867 530 681.333 522.667 681.467 517.867C682 504.667 680 498.667 670.8 484.667C658.533 466.267 648.133 454.533 612.533 419.333C574.667 381.867 572.133 378.4 572 365.867C572 355.333 576.933 347.333 610.133 303.333C656.933 241.333 675.6 211.333 680.8 190.267C683.867 177.867 682.133 171.867 674.267 167.6L668.667 164.667L601.333 165.067C553.733 165.467 533.067 166 530.667 167.067C526.133 169.2 521.467 177.067 515.467 192C499.467 231.867 466.533 289.333 444.8 315.2C436.133 325.467 422.667 336 418.267 336C412 336 406.8 332 402.933 324L399.333 316.667L399.733 247.467C400.133 172.933 399.867 170.8 393.067 160.933C386.267 151.333 369.733 148 325.333 147.333C307.333 147.2 289.733 147.2 286 147.467Z" fill="white"/>
</g>
<defs>
<clipPath id="clip0_18_11">
<rect width="682.667" height="682.667" fill="white"/>
</clipPath>
</defs>
</svg>
